<?xml version="1.0" encoding="utf-8"?>
<!-- Generator: Adobe Illustrator 24.2.0, SVG Export Plug-In . SVG Version: 6.00 Build 0)  -->
<svg version="1.1" id="Capa_1" xmlns="http://www.w3.org/2000/svg" xmlns:xlink="http://www.w3.org/1999/xlink" x="0px" y="0px"
	 viewBox="0 0 35 31" style="enable-background:new 0 0 35 31;" xml:space="preserve">
<style type="text/css">
	.st0{fill:#FFFFFF;}
</style>
<g>
	<g>
		<path class="st0" d="M18.2,1.6c-2.6-1-5.3-1.5-8.1-1.5c-2.7,0-5.5,0.5-8,1.5C1.8,1.7,1.6,2,1.7,2.4l3,14.4l1.6,7.8
			c-1.1,0.7-2.3,1.1-3.5,1.2c-1.2-0.1-2.3,0.8-2.5,2c0,0.1,0,0.2-0.1,0.3c-0.3,0.3-0.3,0.7-0.1,1c0.2,0.2,0.6,0.3,0.9,0.1
			c0.3-0.2,0.6-0.6,0.6-1.1c0.1-0.6,0.2-0.9,1.2-1c0.8,0,1.7-0.2,2.4-0.5c-1,1.6-2.6,2.7-4.4,3.1c-0.4,0-0.7,0.4-0.6,0.8
			s0.4,0.7,0.8,0.6h0.2c3.6-0.6,5.7-4,6.4-5.3l7.8,1.6l14.4,3h0.1c0.3,0,0.6-0.2,0.7-0.4C35,18.7,29.5,6,18.2,1.6z M24.1,7L24.1,7
			L13.2,17.9c-0.8-0.7-1.7-1.2-2.7-1.6L14.8,2C18.3,2.8,21.5,4.5,24.1,7z M6,15.8L3.2,2.7c2.2-0.8,4.6-1.2,6.9-1.2
			c1.1,0,2.2,0.1,3.3,0.3L9.1,15.9c-0.6-0.1-1.2-0.2-1.8-0.2c-0.3,0-0.6,0-0.9,0.1H6.2L6,15.8z M7.3,22.1l-1-4.9h0.1
			c0.8-0.1,1.6-0.1,2.4,0.1L7.3,22.1z M10.1,17.7c0.8,0.3,1.5,0.7,2.1,1.2l-3.5,3.5L10.1,17.7z M12.5,20.5l0.6-0.6
			c0,0.1,0.1,0.1,0.2,0.2c0,0.1,0.1,0.2,0.2,0.3c0.1,0.1,0.2,0.3,0.3,0.5s0.1,0.2,0.2,0.3s0.2,0.3,0.2,0.5c0.1,0.2,0.1,0.2,0.1,0.3
			l-4.8,1.5L12.5,20.5z M14.9,25.3c0,0.1,0,0.3,0,0.4c0,0.1,0,0.1,0,0.2l-4.9-1l4.7-1.4v0.1c0,0.1,0,0.3,0.1,0.4c0,0.1,0,0.3,0,0.5
			c0,0.2,0,0.3,0,0.4C14.9,24.9,14.9,25.1,14.9,25.3z M15.6,21.1c-0.1-0.1-0.2-0.4-0.3-0.6c-0.1-0.2-0.1-0.3-0.2-0.4
			s-0.3-0.4-0.4-0.6c-0.1-0.2-0.1-0.2-0.2-0.3s-0.2-0.2-0.3-0.3L25.1,8c2.4,2.6,4.1,5.8,5,9.3l-14.3,4.3v-0.1
			C15.7,21.4,15.7,21.3,15.6,21.1z M29.4,28.9l-13.2-2.7c0-0.1,0-0.2,0-0.2c0-0.1,0-0.3,0-0.5s0-0.4,0-0.6s0-0.3,0-0.5
			c0-0.2,0-0.4-0.1-0.6s0-0.3-0.1-0.5c0-0.2,0-0.2,0-0.3l14.2-4.3C30.9,22.1,30.6,25.6,29.4,28.9z"/>
	</g>
</g>
</svg>
