<?xml version="1.0" encoding="utf-8"?>
<!-- Generator: Adobe Illustrator 24.2.0, SVG Export Plug-In . SVG Version: 6.00 Build 0)  -->
<svg version="1.1" id="Capa_1" xmlns="http://www.w3.org/2000/svg" xmlns:xlink="http://www.w3.org/1999/xlink" x="0px" y="0px"
	 viewBox="0 0 35 31" style="enable-background:new 0 0 35 31;" xml:space="preserve">
<style type="text/css">
	.st0{fill:#FFFFFF;}
</style>
<path class="st0" d="M33.2,10L33,9.3l-0.7,0.2c-1.5,0.4-2.9,0.7-4.3,0.7c-2.2,0-3.9-0.6-5-1.1c-1.1-0.5-1.7-1.1-1.7-1.1L21,7.7
	l-0.4,0.2c-8.3,3.4-13.1,4.4-15.9,4.9c-1.9,0.3-3.3,1.6-4.1,3.8c-0.5,1.5-0.6,3-0.6,3l0,0.7h0v3h34.7v-3v-0.7
	C34.7,14.2,33.3,10.2,33.2,10z M33.3,18.9h-5.2c0.2-3.6,2.1-5.7,4.1-7.4C32.6,12.9,33.2,15.6,33.3,18.9z M20.7,9.4
	c0.3,0.3,0.9,0.6,1.7,1c2.1,1,4.3,1.2,5.7,1.2c0.6,0,1.3,0,2-0.1c-0.6,0.6-1.1,1.2-1.6,1.9c-1.1,1.6-1.7,3.4-1.8,5.5h-18
	c0.2-2.1,0.2-4,0-5.4c0.9-0.2,2-0.5,3.2-0.9v2.6h1.4v-3c0.6-0.2,1.1-0.4,1.7-0.6v2.5h1.4V11c0.6-0.2,1.1-0.4,1.7-0.7v2.8h1.4V9.8
	C20,9.7,20.4,9.6,20.7,9.4z M1.9,17c0.6-1.6,1.6-2.6,2.9-2.8c0.7-0.1,1.5-0.3,2.4-0.5c0.2,1.3,0.1,3.1-0.1,5.1H1.5
	C1.6,18.4,1.7,17.7,1.9,17z M33.3,21.9H1.5v-1.6h31.8V21.9z"/>
</svg>
