<?xml version="1.0" encoding="utf-8"?>
<!-- Generator: Adobe Illustrator 24.2.0, SVG Export Plug-In . SVG Version: 6.00 Build 0)  -->
<svg version="1.1" id="Capa_1" xmlns="http://www.w3.org/2000/svg" xmlns:xlink="http://www.w3.org/1999/xlink" x="0px" y="0px"
	 viewBox="0 0 35 31" style="enable-background:new 0 0 35 31;" xml:space="preserve">
<style type="text/css">
	.st0{fill:#FFFFFF;}
</style>
<path id="Shape" class="st0" d="M24.9,3.2c0.2-2.7-4.3-3.1-4.6-0.4c-2.8,0.4-7.5,1.5-10.1,5.2c-2.4,3.5-3,8.1-3.2,9.3
	c-2.9,2.1-5.4,3.7-6.6,4.8c-0.4,0.4-0.4,1-0.1,1.4c0.2,0.2,0.4,0.4,0.7,0.5s0.6,0,0.8-0.2c0.1-0.1,1.5-0.9,4.9-0.4
	c6.1,0.9,4.8,4,11.4,3.5c5.7-0.5,9.1-4.6,10-5.8c1.1,0.1,2.2,0.1,3.2,0.3c0.7,0.2,1.5,0.1,2.2-0.3c0.6-0.4,1-1,1.1-1.7
	c0.2-1.1,0.3-2.3,0.3-3.4C34.7,9.5,31,5.2,24.9,3.2L24.9,3.2z M13.4,17.3c0.3-2.9,2-12,9-13.4c5.3,3,2.7,13.2,2,15.8
	C20,19.1,15.7,17.7,13.4,17.3L13.4,17.3z M23.7,2.9c-0.7-0.2-1.5-0.3-2.2-0.1C21.8,1.9,23.5,2,23.7,2.9L23.7,2.9z M11.1,8.8
	c1.8-2.5,4.8-3.8,7.3-4.4c-4.6,3.3-5.9,10.2-6.2,12.8c-1.3-0.2-2.7-0.2-4-0.1C8.4,15.4,9.1,11.6,11.1,8.8z M17.9,25.7
	c-6.1,0.6-4.6-2.5-11.1-3.5c-2.8-0.4-4.4,0-5.2,0.3c1.2-1,3.7-2.6,6.2-4.4c5.4-0.8,11.6,2.4,18.8,2.9C24.3,23.7,21.2,25.4,17.9,25.7
	z M33.3,19.2c-0.2,1.1-0.8,1.2-2,1.1c-2.5-0.3-3.9-0.2-5.8-0.4c1.3-4.6,2.3-11.6-0.7-15.4c4.1,1.4,7.3,4,8.3,8.4
	C33.6,14.9,33.7,17.1,33.3,19.2z"/>
</svg>
