<?xml version="1.0" encoding="utf-8"?>
<!-- Generator: Adobe Illustrator 24.2.0, SVG Export Plug-In . SVG Version: 6.00 Build 0)  -->
<svg version="1.1" id="Capa_1" xmlns="http://www.w3.org/2000/svg" xmlns:xlink="http://www.w3.org/1999/xlink" x="0px" y="0px"
	 viewBox="0 0 35 31" style="enable-background:new 0 0 35 31;" xml:space="preserve">
<style type="text/css">
	.st0{fill:#FFFFFF;}
</style>
<g>
	<path class="st0" d="M9,19.4c-0.8-0.8-2.2-0.8-3,0c-0.4,0.4-0.6,0.9-0.6,1.5s0.2,1.1,0.6,1.5c0.4,0.4,1,0.6,1.5,0.6
		C8,23,8.5,22.8,9,22.4c0.4-0.4,0.6-0.9,0.6-1.5S9.4,19.8,9,19.4L9,19.4z M8.3,20.9c0,0.2-0.1,0.5-0.3,0.6c-0.3,0.3-0.9,0.3-1.3,0
		c-0.2-0.2-0.3-0.4-0.3-0.6s0.1-0.5,0.3-0.6C7,20.1,7.2,20,7.4,20c0.2,0,0.5,0.1,0.6,0.3C8.2,20.4,8.3,20.6,8.3,20.9z"/>
	<path class="st0" d="M10.6,15.6c-0.2-0.2-0.6-0.2-0.9,0c-0.1,0.1-0.2,0.3-0.2,0.4c0,0.2,0.1,0.3,0.2,0.4l1.3,1.3
		c0.2,0.2,0.2,0.6,0,0.8s-0.6,0.2-0.8,0l-1.3-1.3C8.7,17,8.2,17,8,17.3c-0.1,0.1-0.2,0.3-0.2,0.4c0,0.2,0.1,0.3,0.2,0.4l1.3,1.3
		c0.3,0.3,0.8,0.5,1.3,0.5c0,0,0,0,0,0c0.5,0,1-0.2,1.3-0.5c0.7-0.7,0.7-1.9,0-2.6L10.6,15.6z"/>
	<path class="st0" d="M12.8,14.3l0.4-0.4c0.1-0.1,0.2-0.3,0.2-0.4c0-0.2-0.1-0.3-0.2-0.4c-0.2-0.2-0.6-0.2-0.9,0l-1.6,1.6
		c-0.2,0.2-0.2,0.6,0,0.9s0.6,0.2,0.9,0l0.4-0.4l1.7,1.7c0.1,0.1,0.3,0.2,0.4,0.2s0.3-0.1,0.4-0.2c0.1-0.1,0.2-0.3,0.2-0.4
		s-0.1-0.3-0.2-0.4L12.8,14.3z"/>
	<path class="st0" d="M16.4,13.1l-0.7,0.7l-1.7-1.7c-0.2-0.2-0.7-0.2-0.9,0c-0.2,0.2-0.2,0.6,0,0.9l2.1,2.1c0.1,0.1,0.3,0.2,0.4,0.2
		c0.2,0,0.3-0.1,0.4-0.2l1.1-1.1c0.1-0.1,0.2-0.3,0.2-0.4s-0.1-0.3-0.2-0.4C17.1,12.9,16.7,12.9,16.4,13.1z"/>
	<path class="st0" d="M19.4,11.1c-0.2-0.2-0.6-0.2-0.9,0l-0.7,0.7l-0.2-0.2l0.4-0.4c0.2-0.2,0.2-0.6,0-0.9s-0.6-0.2-0.9,0l-0.4,0.4
		l-0.2-0.2l0.7-0.7c0.1-0.1,0.2-0.3,0.2-0.4c0-0.2-0.1-0.3-0.2-0.4c-0.2-0.2-0.6-0.2-0.9,0L15.3,10c-0.1,0.1-0.2,0.3-0.2,0.4
		c0,0.2,0.1,0.3,0.2,0.4l2.1,2.1c0.1,0.1,0.3,0.2,0.4,0.2c0.2,0,0.3-0.1,0.4-0.2l1.1-1.1C19.6,11.7,19.6,11.3,19.4,11.1L19.4,11.1z"
		/>
	<path class="st0" d="M19.4,7.6l0.4-0.4C19.9,7.2,20,7,20,6.8c0-0.2-0.1-0.3-0.2-0.4c-0.2-0.2-0.7-0.2-0.9,0L17.3,8
		c-0.2,0.2-0.2,0.6,0,0.9c0.1,0.1,0.3,0.2,0.4,0.2c0,0,0,0,0,0c0.2,0,0.3-0.1,0.4-0.2l0.4-0.4l1.7,1.7c0.1,0.1,0.3,0.2,0.4,0.2
		c0.2,0,0.3-0.1,0.4-0.2c0.2-0.2,0.2-0.6,0-0.9L19.4,7.6z"/>
	<path class="st0" d="M34.1,10.8L34.1,10.8c-0.5-1.3-1.3-2.4-2.2-3.4c-0.5-0.5-1-0.9-1.5-1.3c-0.5-0.4-1.1-0.7-1.7-1
		C28.5,5,28.4,5,28.3,5l0-0.2c0-1.1-0.5-2.3-1.3-3.1c-0.9-0.9-2-1.3-3.1-1.3c-0.7,0-1.6,0-2.7,0l-2.4,0c-1.3,0-2.5,0.5-3.4,1.4
		L1.5,15.5c-1,1-1.5,2.3-1.5,3.6s0.5,2.7,1.5,3.6l4.3,4.3c1,1,2.3,1.5,3.6,1.5c1.4,0,2.7-0.5,3.6-1.5l13.8-13.8
		c0.9-0.9,1.4-2.1,1.4-3.4l0-3.5c3.2,1.6,5.3,4.9,5.3,8.5c0,2.5-1,4.9-2.8,6.7c-1.8,1.8-4.2,2.8-6.7,2.8c-1.7,0-3.5-0.5-5.1-1.5
		c-0.3-0.2-0.7-0.1-0.9,0.2c-0.2,0.3-0.1,0.7,0.2,0.9c0.9,0.5,1.8,0.9,2.7,1.2c2.4,0.7,5,0.6,7.2-0.4c0.6-0.3,1.3-0.6,1.8-1
		c0.6-0.4,1.1-0.8,1.6-1.3c0.5-0.5,0.9-1,1.3-1.6c0.4-0.6,0.7-1.2,1-1.8c0.6-1.3,0.8-2.7,0.8-4.2C34.9,13.4,34.6,12.1,34.1,10.8z
		 M23.7,4.7c0,0.3,0.2,0.5,0.4,0.6c-0.1,0-0.1,0-0.2,0c-0.3,0-0.6-0.3-0.6-0.6s0.3-0.6,0.6-0.6c0.1,0,0.2,0,0.2,0
		C23.9,4.2,23.7,4.5,23.7,4.7z M23.9,2.8c-1,0-1.9,0.8-1.9,1.9s0.8,1.9,1.9,1.9c0.8,0,1.4-0.5,1.7-1.1c0.5,0.1,1,0.2,1.4,0.3l0,4
		c0,0.9-0.4,1.8-1,2.5L12.2,26.2c-0.7,0.7-1.7,1.1-2.7,1.1s-2-0.4-2.7-1.1l-4.3-4.3c-0.7-0.7-1.1-1.7-1.1-2.7s0.4-2,1.1-2.7
		L16.2,2.6c0.7-0.7,1.6-1,2.5-1l2.1,0c0.9,0,1.7,0,2.3,0l0.7,0c0.8,0,1.6,0.3,2.2,1c0.6,0.6,0.9,1.3,0.9,2c-0.4-0.1-0.9-0.2-1.4-0.3
		C25.5,3.4,24.7,2.8,23.9,2.8z"/>
</g>
</svg>
