<svg xmlns="http://www.w3.org/2000/svg" width="29" height="20" viewBox="0 0 29 20"><g><g><g><g><g><path fill="#580000" d="M21.997 18.064a1.8 1.8 0 0 1-1.798-1.797 1.8 1.8 0 0 1 1.798-1.797 1.8 1.8 0 0 1 1.797 1.797 1.8 1.8 0 0 1-1.797 1.797zm0-5.392a3.599 3.599 0 0 0-3.595 3.595 3.599 3.599 0 0 0 3.595 3.595 3.599 3.599 0 0 0 3.594-3.595 3.599 3.599 0 0 0-3.594-3.595z"/></g></g></g><g><g><g><path fill="#580000" d="M9.715 18.064a1.8 1.8 0 0 1-1.798-1.797 1.8 1.8 0 0 1 1.798-1.797 1.8 1.8 0 0 1 1.797 1.797 1.8 1.8 0 0 1-1.797 1.797zm0-5.392a3.599 3.599 0 0 0-3.595 3.595 3.599 3.599 0 0 0 3.595 3.595 3.599 3.599 0 0 0 3.595-3.595 3.599 3.599 0 0 0-3.595-3.595z"/></g></g></g><g><g><g><path fill="#580000" d="M24.417 2.383a.9.9 0 0 0-.803-.495h-4.733v1.798h4.179l2.447 4.867 1.606-.808z"/></g></g></g><g><g><g><path fill="#580000" d="M12.5 17.196v-1.798h6.8v1.798z"/></g></g></g><g><g><g><path fill="#580000" d="M7.019 15.398H3.903a.899.899 0 1 0 0 1.798H7.02a.899.899 0 1 0 0-1.798z"/></g></g></g><g><g><g><path fill="#580000" d="M28.788 9.904L27.02 7.628a.897.897 0 0 0-.71-.348h-6.53V.99A.899.899 0 0 0 18.88.09H3.903a.899.899 0 1 0 0 1.797h14.08V8.18c0 .496.402.899.898.899h6.99l1.308 1.686v4.634h-2.486a.899.899 0 1 0 0 1.798h3.385a.899.899 0 0 0 .898-.9v-5.84a.9.9 0 0 0-.188-.552z"/></g></g></g><g><g><g><path fill="#580000" d="M6.959 10.845H2.825a.899.899 0 1 0 0 1.797h4.134a.899.899 0 1 0 0-1.797z"/></g></g></g><g><g><g><path fill="#580000" d="M9.026 7.31H1.357a.899.899 0 1 0 0 1.798h7.669a.899.899 0 1 0 0-1.798z"/></g></g></g><g><g><g><path fill="#580000" d="M10.494 3.776H2.825a.899.899 0 1 0 0 1.797h7.669a.899.899 0 1 0 0-1.797z"/></g></g></g></g></g></svg>