<svg xmlns="http://www.w3.org/2000/svg" width="23" height="26" viewBox="0 0 23 26"><g><g><g><g><g><path fill="#580000" d="M12.96 23.19c-.426.375-.794.698-1.097.981a.365.365 0 0 1-.496 0c-.304-.283-.671-.606-1.097-.98-2.818-2.48-8.064-7.094-8.064-12.312 0-5.188 4.22-9.409 9.409-9.409 5.188 0 9.409 4.221 9.409 9.41 0 5.216-5.246 9.831-8.064 12.31zm6.378-20.034a10.85 10.85 0 0 0-7.723-3.198 10.85 10.85 0 0 0-7.723 3.198A10.85 10.85 0 0 0 .693 10.88c0 5.901 5.58 10.81 8.578 13.447.417.366.776.683 1.063.95.36.336.82.504 1.28.504.462 0 .923-.168 1.282-.503.286-.268.646-.585 1.063-.951 2.997-2.637 8.577-7.546 8.577-13.447a10.85 10.85 0 0 0-3.198-7.723z"/></g></g></g><g><g><g><path fill="#580000" d="M11.615 13.767c-1.82 0-3.3-1.48-3.3-3.3 0-1.82 1.48-3.3 3.3-3.3 1.82 0 3.3 1.48 3.3 3.3 0 1.82-1.48 3.3-3.3 3.3zm0-8.113a4.818 4.818 0 0 0-4.813 4.812 4.818 4.818 0 0 0 4.813 4.813 4.818 4.818 0 0 0 4.813-4.813 4.818 4.818 0 0 0-4.813-4.812z"/></g></g></g></g></g></svg>