<svg xmlns="http://www.w3.org/2000/svg" width="29" height="29" viewBox="0 0 29 29"><g><g><g><path fill="#580000" d="M20.94 9.483a.689.689 0 0 1-.49.203.694.694 0 1 1 .49-.203zm4.295 5.205L13.296 26.611 2.822 16.123 14.761 4.2l8.323.966L21.41 6.83a2.358 2.358 0 0 0-.96-.203 2.35 2.35 0 0 0-1.671.692 2.367 2.367 0 0 0-.002 3.344 2.35 2.35 0 0 0 1.673.694 2.35 2.35 0 0 0 1.671-.692 2.369 2.369 0 0 0 .478-2.66l1.678-1.668zM29 1.64L27.822.455 24.599 3.66 14.15 2.447.46 16.122l12.836 12.853L26.988 15.3 25.787 4.835z"/></g></g></g></svg>