<svg xmlns="http://www.w3.org/2000/svg" xmlns:xlink="http://www.w3.org/1999/xlink"
                                    version="1.1" id="Capa_1" x="0px" y="0px" viewBox="0 0 512.002 512.002"
                                    style="enable-background:new 0 0 512.002 512.002;" xml:space="preserve">
                                    <g>
                                        <g>
                                            <path d="M493.348,374.786c0.14-0.096,0.274-0.203,0.414-0.3c0.4-0.28,0.795-0.568,1.186-0.862c0.254-0.191,0.508-0.383,0.759-0.58    c0.392-0.309,0.775-0.628,1.157-0.95c0.234-0.198,0.47-0.393,0.7-0.596c0.406-0.359,0.802-0.732,1.195-1.108    c0.19-0.182,0.385-0.357,0.572-0.542c0.573-0.567,1.133-1.149,1.675-1.751c8.11-9.009,12.032-21.099,10.76-33.17    c-2.379-22.582-6.835-45.051-13.242-66.779c-3.413-11.573-11.622-21.199-22.521-26.406c-3.121-1.49-6.385-2.583-9.717-3.274    c0.096-0.147,0.181-0.302,0.276-0.45c0.259-0.407,0.511-0.819,0.756-1.235c0.165-0.281,0.33-0.561,0.489-0.846    c0.241-0.431,0.471-0.869,0.698-1.31c0.142-0.277,0.288-0.551,0.424-0.832c0.239-0.49,0.462-0.989,0.682-1.489    c0.105-0.238,0.217-0.473,0.318-0.714c0.312-0.746,0.608-1.501,0.878-2.268c1.512-4.284,2.314-8.742,2.421-13.2    c0.159-6.688-1.248-13.379-4.176-19.498c-0.325-0.68-0.669-1.353-1.032-2.017c-5.009-9.182-10.466-18.259-16.22-26.983    c-6.694-10.151-13.967-20.094-21.617-29.553c-7.602-9.401-18.888-15.158-30.965-15.795c-3.433-0.182-6.852,0.056-10.18,0.687    c0.033-0.176,0.053-0.354,0.084-0.53c0.083-0.474,0.158-0.949,0.226-1.425c0.046-0.321,0.09-0.643,0.128-0.965    c0.059-0.493,0.104-0.988,0.146-1.484c0.026-0.308,0.055-0.615,0.074-0.924c0.033-0.544,0.05-1.089,0.062-1.635    c0.006-0.262,0.02-0.523,0.021-0.786c0.004-0.806-0.012-1.614-0.054-2.423c0-0.002,0-0.005,0-0.007    c-0.223-4.226-1.086-8.351-2.5-12.259c-2.626-7.26-7.184-13.764-13.295-18.706c-9.233-7.465-18.926-14.573-28.811-21.126    c-8.955-5.936-18.283-11.559-27.725-16.711c-10.638-5.803-23.29-6.819-34.716-2.787c-3.244,1.146-6.309,2.669-9.142,4.522    c-0.036-0.172-0.085-0.342-0.123-0.514c-0.108-0.487-0.223-0.972-0.348-1.456c-0.078-0.302-0.157-0.604-0.242-0.904    c-0.139-0.494-0.291-0.986-0.448-1.476c-0.091-0.283-0.178-0.566-0.274-0.847c-0.182-0.528-0.38-1.051-0.583-1.573    c-0.092-0.237-0.176-0.475-0.272-0.71c-0.308-0.752-0.633-1.498-0.985-2.235c-2.929-6.131-7.256-11.411-12.541-15.465    c-0.11-0.084-0.226-0.162-0.337-0.245c-4.03-3.029-8.599-5.359-13.526-6.812c-10.772-3.177-21.823-5.901-32.847-8.092    c-11.17-2.222-22.587-3.955-33.933-5.151c-12.065-1.271-24.161,2.651-33.169,10.76c-2.549,2.293-4.789,4.868-6.69,7.655    c-1.902-2.788-4.142-5.363-6.691-7.657c-9.009-8.11-21.094-12.026-33.167-10.76C74.772,2.617,52.302,7.072,30.577,13.48    C19.004,16.893,9.38,25.102,4.171,36.002c-5.22,10.927-5.556,23.609-0.923,34.794l12.54,30.273    c1.572,3.795,5.921,5.595,9.717,4.025c3.795-1.572,5.597-5.922,4.025-9.717L16.99,65.103c-3.02-7.294-2.801-15.563,0.603-22.689    c3.442-7.204,9.547-12.413,17.19-14.668c20.863-6.152,42.442-10.431,64.135-12.716c7.881-0.834,15.775,1.728,21.655,7.02    c5.935,5.343,9.204,12.681,9.204,20.666v170.48c0,0.126-0.024,0.248-0.067,0.361c-0.129,0.338-0.428,0.593-0.766,0.61    c-0.001,0-0.001,0-0.002,0c-15.573,0.794-30.89,3.84-45.529,9.052c-0.445,0.165-0.967-0.094-1.163-0.566l-39.472-95.295    c-1.572-3.795-5.921-5.597-9.717-4.025c-3.795,1.572-5.597,5.922-4.025,9.717l39.472,95.294    c3.233,7.805,11.972,11.709,19.896,8.887c4.406-1.569,8.885-2.899,13.415-4.027l18.267,101.498c0,0,0,0,0.001,0    c-16.29,6.553-27.826,22.507-27.826,41.114c0,24.43,19.875,44.305,44.305,44.305c19.344,0,35.822-12.467,41.848-29.785    l100.825,18.145c-1.214,5.111-2.704,10.156-4.47,15.114c-2.822,7.925,1.083,16.664,8.887,19.895l91.313,37.823    c0.931,0.386,1.894,0.568,2.843,0.568c2.918,0,5.688-1.73,6.874-4.593c1.573-3.795-0.23-8.145-4.025-9.717l-91.314-37.824    c-0.471-0.195-0.724-0.717-0.566-1.162c5.213-14.638,8.26-29.956,9.054-45.53c0.023-0.452,0.468-0.834,0.971-0.834l170.458-0.001    c0.007,0,0.013,0.001,0.019,0.001c7.985,0,15.324,3.268,20.667,9.204c5.293,5.881,7.853,13.776,7.022,21.66    c-2.284,21.689-6.563,43.266-12.715,64.131c-2.254,7.644-7.464,13.749-14.667,17.19c-7.127,3.404-15.397,3.623-22.691,0.602    l-34.268-14.194c-3.791-1.574-8.144,0.23-9.717,4.025s0.229,8.145,4.025,9.717l34.268,14.194    c5.236,2.169,10.799,3.249,16.357,3.249c6.316,0,12.625-1.395,18.438-4.171c10.899-5.207,19.109-14.832,22.521-26.406    c6.407-21.728,10.863-44.196,13.242-66.779c1.272-12.07-2.65-24.16-10.759-33.169    C498.712,378.929,496.136,376.688,493.348,374.786z M271.171,70.825c0-0.001,0.001-0.002,0.001-0.003    c3.019-7.287,9.017-12.973,16.456-15.599c7.447-2.63,15.701-1.968,22.64,1.819c9.069,4.949,18.03,10.348,26.63,16.05    c9.496,6.296,18.809,13.124,27.677,20.295c1.915,1.548,3.597,3.331,5.018,5.291c3.127,4.311,4.989,9.48,5.275,14.892    c0.026,0.492,0.039,0.984,0.039,1.474c-0.002,4.578-1.144,9.055-3.26,13.047c-1.285,2.423-2.924,4.67-4.899,6.645L246.165,255.32    c-0.18,0.18-0.415,0.28-0.648,0.295c-0.214,0.014-0.422-0.052-0.591-0.184c-0.015-0.011-0.033-0.015-0.047-0.027    c-0.004-0.004-0.009-0.007-0.013-0.011c-5.833-5.262-12.099-10.136-18.622-14.486c-6.349-4.232-13.051-8.043-19.922-11.325    c-0.411-0.197-0.594-0.724-0.417-1.189c0.006-0.016,0.013-0.03,0.018-0.046L271.171,70.825z M211.226,249.062l-57.853,85.772    c-0.701-0.289-1.412-0.558-2.131-0.812l20.214-101.094c4.929,1.188,9.812,2.611,14.572,4.306c0.392,0.14,0.786,0.257,1.181,0.364    c0.118,0.032,0.236,0.06,0.353,0.089c0.294,0.072,0.588,0.136,0.883,0.191c0.115,0.022,0.23,0.045,0.346,0.063    c0.398,0.065,0.796,0.119,1.193,0.153c0.003,0,0.005,0,0.008,0c0.396,0.033,0.791,0.047,1.186,0.05    c0.042,0,0.085,0.005,0.127,0.005c0.079,0,0.157-0.008,0.236-0.009c0.242-0.004,0.482-0.012,0.723-0.027    c0.128-0.008,0.257-0.017,0.384-0.028c0.243-0.021,0.485-0.049,0.726-0.081c0.117-0.015,0.235-0.029,0.352-0.047    c0.052-0.008,0.104-0.012,0.156-0.021c1.499,2.112,3.539,3.878,6.028,5.068C203.757,244.842,207.534,246.882,211.226,249.062z     M144.652,213.197c0-0.001,0-0.001,0-0.002V42.741c0-0.007,0.001-0.014,0.001-0.021c0-7.985,3.269-15.325,9.205-20.668    c5.88-5.293,13.776-7.855,21.659-7.022c10.898,1.149,21.863,2.812,32.591,4.946c10.585,2.105,21.197,4.72,31.54,7.771    c7.644,2.254,13.749,7.464,17.19,14.667c0.638,1.336,1.165,2.712,1.579,4.115c1.794,6.078,1.479,12.649-0.976,18.575    c-0.005,0.013-0.011,0.029-0.016,0.042L192.19,222.634c-0.003,0.008-0.007,0.015-0.01,0.023c-0.027,0.066-0.074,0.116-0.113,0.173    c-0.033,0.048-0.059,0.102-0.099,0.143c-0.043,0.044-0.097,0.072-0.147,0.107c-0.046,0.032-0.088,0.073-0.138,0.097    c-0.073,0.034-0.151,0.048-0.229,0.063c-0.034,0.006-0.065,0.023-0.099,0.026c-0.097,0.007-0.194-0.01-0.29-0.037    c-0.016-0.005-0.033-0.001-0.048-0.007c-7.529-2.682-15.326-4.812-23.174-6.334c-7.341-1.422-14.863-2.337-22.357-2.719    c-0.447-0.023-0.813-0.436-0.834-0.931c0-0.013,0-0.026,0-0.039h-0.001C144.652,213.198,144.652,213.197,144.652,213.197z     M116.417,230.34c4.398-0.639,8.829-1.089,13.287-1.316c0.467-0.024,0.926-0.075,1.382-0.139c0.109-0.015,0.217-0.031,0.325-0.048    c0.449-0.072,0.893-0.157,1.328-0.266c0.024-0.006,0.048-0.014,0.072-0.02c0.415-0.107,0.822-0.234,1.223-0.372    c0.099-0.034,0.198-0.069,0.297-0.105c0.414-0.153,0.822-0.318,1.219-0.504c0.038-0.018,0.075-0.038,0.113-0.057    c0.366-0.175,0.722-0.366,1.072-0.567c0.087-0.05,0.175-0.1,0.261-0.152c0.073-0.044,0.149-0.084,0.221-0.129    c2.194,1.373,4.755,2.22,7.513,2.36c4.049,0.206,8.105,0.592,12.13,1.139l-20.285,101.351c-0.003,0-0.006,0-0.009,0    c-0.647,0-1.29,0.021-1.93,0.049L116.417,230.34z M136.565,405.248c-16.228,0-29.43-13.202-29.43-29.43    c0-16.228,13.202-29.43,29.43-29.43c16.228,0,29.429,13.202,29.429,29.43C165.994,392.046,152.793,405.248,136.565,405.248z     M165.988,342.733l57.647-85.466c3.903,2.878,7.686,5.939,11.278,9.179c0.335,0.302,0.683,0.581,1.036,0.85    c0.09,0.069,0.181,0.136,0.273,0.202c0.324,0.236,0.653,0.46,0.99,0.667c0.037,0.023,0.072,0.048,0.109,0.07    c0.372,0.225,0.752,0.429,1.137,0.62c0.094,0.047,0.188,0.09,0.283,0.135c0.336,0.158,0.675,0.305,1.018,0.438    c0.063,0.024,0.124,0.052,0.187,0.075c0.399,0.149,0.803,0.279,1.211,0.394c0.089,0.025,0.179,0.047,0.268,0.071    c0.161,0.042,0.321,0.09,0.482,0.127c0.582,2.527,1.796,4.941,3.65,6.995c2.729,3.024,5.331,6.192,7.809,9.446l-85.436,58.021    c0.453,0.454,0.895,0.919,1.327,1.392C168.224,344.821,167.131,343.75,165.988,342.733z M177.353,358.526    c-0.262-0.616-0.538-1.225-0.827-1.827l85.234-57.883c2.635,4.306,5.071,8.74,7.238,13.276c0.002,0.005,0.006,0.009,0.008,0.014    c0.27,0.565,0.577,1.1,0.904,1.617c0.047,0.075,0.091,0.152,0.14,0.225c0.321,0.489,0.669,0.953,1.036,1.396    c0.068,0.082,0.136,0.164,0.206,0.245c0.374,0.433,0.768,0.844,1.182,1.229c0.068,0.063,0.138,0.123,0.208,0.185    c0.435,0.391,0.886,0.761,1.358,1.098c0.008,0.006,0.016,0.014,0.024,0.02c-0.425,2.557-0.224,5.249,0.704,7.854    c1.443,4.052,2.683,8.165,3.75,12.323L177.353,358.526z M282.978,382.3c-0.198,3.871-0.563,7.723-1.065,11.551l-101.047-18.186    c-0.004-0.895-0.04-1.781-0.096-2.663c0,0.003,0.001,0.007,0.001,0.01l100.722-20.139c0.728,4.764,1.239,9.567,1.486,14.402    c0.024,0.467,0.075,0.926,0.139,1.382c0.015,0.109,0.031,0.217,0.048,0.325c0.072,0.449,0.157,0.893,0.267,1.328    c0.006,0.024,0.014,0.048,0.02,0.072c0.107,0.415,0.233,0.822,0.372,1.223c0.034,0.1,0.069,0.199,0.105,0.298    c0.153,0.414,0.318,0.821,0.503,1.218c0.018,0.039,0.04,0.077,0.058,0.116c0.174,0.364,0.364,0.719,0.565,1.067    c0.051,0.088,0.101,0.177,0.154,0.264c0.044,0.072,0.083,0.147,0.128,0.219C283.965,376.982,283.119,379.543,282.978,382.3z     M283.637,306.087c-0.118,0.049-0.241,0.074-0.362,0.077c-0.053,0.002-0.101-0.016-0.153-0.022    c-0.066-0.008-0.134-0.008-0.196-0.028c-0.22-0.073-0.405-0.223-0.505-0.432c-0.005-0.01-0.011-0.019-0.016-0.029    c-3.593-7.519-7.808-14.819-12.53-21.697c-4.032-5.875-8.5-11.539-13.277-16.832c-0.314-0.348-0.277-0.923,0.082-1.284    c0.001-0.001,0.002-0.001,0.003-0.002l120.585-120.585c0.003-0.003,0.006-0.006,0.009-0.01c5.574-5.569,13.287-8.514,21.156-8.112    c7.872,0.415,15.227,4.167,20.182,10.294c7.349,9.088,14.336,18.639,20.767,28.389c5.527,8.38,10.768,17.099,15.579,25.918    c1.183,2.168,2.061,4.465,2.629,6.825c0.568,2.36,0.826,4.784,0.768,7.207c-0.069,2.908-0.592,5.814-1.578,8.608    c-0.324,0.918-0.695,1.813-1.11,2.685c-0.005,0.011-0.01,0.023-0.016,0.035c-0.085,0.179-0.18,0.352-0.269,0.528    c-0.904,1.793-1.994,3.474-3.249,5.02c-2.889,3.56-6.637,6.4-10.955,8.189L283.637,306.087z M490.91,357.019    c-0.067,0.083-0.14,0.161-0.207,0.243c-0.246,0.298-0.494,0.595-0.753,0.883c-0.332,0.369-0.673,0.728-1.02,1.077    c-0.136,0.136-0.277,0.263-0.415,0.396c-0.215,0.207-0.429,0.418-0.65,0.618c-0.167,0.151-0.34,0.292-0.51,0.439    c-0.199,0.171-0.394,0.347-0.597,0.512c-0.178,0.145-0.362,0.28-0.544,0.42c-0.202,0.156-0.4,0.317-0.606,0.467    c-0.178,0.13-0.361,0.25-0.542,0.376c-0.215,0.149-0.428,0.303-0.646,0.446c-0.18,0.118-0.366,0.226-0.548,0.339    c-0.225,0.139-0.447,0.283-0.676,0.415c-0.185,0.107-0.374,0.205-0.561,0.307c-0.233,0.128-0.463,0.26-0.699,0.38    c-0.183,0.094-0.37,0.178-0.555,0.267c-0.245,0.119-0.489,0.241-0.738,0.353c-0.181,0.081-0.366,0.152-0.548,0.229    c-0.258,0.109-0.514,0.221-0.775,0.321c-0.181,0.07-0.367,0.13-0.549,0.196c-0.267,0.096-0.533,0.196-0.803,0.284    c-0.184,0.06-0.371,0.111-0.556,0.167c-0.274,0.083-0.546,0.168-0.823,0.243c-0.185,0.049-0.372,0.09-0.558,0.136    c-0.282,0.069-0.563,0.141-0.847,0.202c-0.185,0.039-0.373,0.07-0.559,0.105c-0.289,0.055-0.577,0.113-0.868,0.159    c-0.189,0.03-0.381,0.051-0.571,0.077c-0.291,0.04-0.582,0.083-0.876,0.114c-0.195,0.021-0.393,0.032-0.59,0.049    c-0.292,0.025-0.582,0.052-0.876,0.068c-0.202,0.011-0.406,0.013-0.609,0.019c-0.317,0.01-0.633,0.024-0.952,0.024h-0.001    l-170.476,0.001c-0.489,0-0.915-0.362-0.961-0.796c-0.001-0.013-0.01-0.024-0.01-0.038c0-0.001,0-0.001,0-0.002    c-0.794-15.573-3.84-30.89-9.052-45.529c-0.159-0.446,0.094-0.967,0.565-1.162c0.006-0.002,0.011-0.006,0.017-0.008    l157.511-65.243c0.025-0.011,0.051-0.02,0.076-0.031c7.281-2.999,15.53-2.774,22.64,0.623c7.203,3.442,12.412,9.547,14.667,17.19    c6.152,20.865,10.431,42.443,12.715,64.131c0.104,0.986,0.155,1.971,0.154,2.953c-0.005,6.258-2.116,12.359-5.989,17.285    C491.059,356.821,490.988,356.922,490.91,357.019z" />
                                        </g>
                                    </g>
                                </svg>