<svg xmlns="http://www.w3.org/2000/svg" id="Layer_1"
                                    style="enable-background:new 0 0 512 512;" viewBox="0 0 512 512" x="0px" y="0px"
                                    xmlns:xml="http://www.w3.org/XML/1998/namespace" xml:space="preserve"
                                    xmlns:xlink="http://www.w3.org/1999/xlink" version="1.1">
                                    <g>
                                        <g>
                                            <path
                                                d="M 362.672 42.66 h -53.328 c 0 29.414 -23.938 53.336 -53.344 53.336 s -53.328 -23.922 -53.328 -53.336 h -53.336 L 0 127.996 l 42.672 117.336 l 64 -21.336 V 469.34 h 298.672 V 223.996 l 64 21.336 L 512 127.996 L 362.672 42.66 Z M 456.375 218.527 l -44.297 -14.766 L 384 194.395 v 29.602 v 224 H 128 v -224 v -29.602 l -28.078 9.367 l -44.297 14.766 l -29.43 -80.93 L 155 63.996 h 29.43 c 9.18 30.844 37.75 53.336 71.57 53.336 c 33.828 0 62.391 -22.492 71.562 -53.336 H 357 l 128.812 73.602 L 456.375 218.527 Z" />
                                        </g>
                                    </g>
                                </svg>